<svg width="367" height="111" viewBox="0 0 367 111" fill="none" xmlns="http://www.w3.org/2000/svg">
<rect width="367" height="55" rx="8" fill="url(#paint0_linear_12244_167)"/>
<path d="M93.496 32.334L100.408 20.4H102.334L105.088 32.802L103.45 33.18L102.694 29.58H96.862L94.864 33.144L93.496 32.334ZM97.672 28.14H102.388L101.11 22.074L97.672 28.14ZM107.682 23.64C108.93 23.64 109.554 24.18 109.554 25.26V25.638C109.902 24.99 110.352 24.462 110.904 24.054C111.456 23.634 112.098 23.424 112.83 23.424C113.478 23.424 114.042 23.592 114.522 23.928C115.002 24.252 115.368 24.708 115.62 25.296C115.884 25.872 116.016 26.544 116.016 27.312C116.016 28.2 115.884 29.01 115.62 29.742C115.368 30.462 115.02 31.086 114.576 31.614C114.132 32.13 113.634 32.526 113.082 32.802C112.53 33.078 111.96 33.216 111.372 33.216C110.796 33.216 110.256 33.072 109.752 32.784C109.26 32.496 108.876 32.142 108.6 31.722L107.682 36.96H106.062L107.934 26.25C107.97 26.046 107.988 25.878 107.988 25.746C107.988 25.182 107.694 24.9 107.106 24.9L107.682 23.64ZM111.228 31.776C111.792 31.776 112.308 31.596 112.776 31.236C113.256 30.864 113.64 30.354 113.928 29.706C114.216 29.058 114.36 28.314 114.36 27.474C114.36 26.658 114.174 26.016 113.802 25.548C113.43 25.068 112.944 24.828 112.344 24.828C111.864 24.828 111.402 24.978 110.958 25.278C110.526 25.578 110.154 25.998 109.842 26.538C109.53 27.078 109.308 27.714 109.176 28.446L108.852 30.264C109.116 30.744 109.458 31.116 109.878 31.38C110.298 31.644 110.748 31.776 111.228 31.776ZM118.422 23.64C119.67 23.64 120.294 24.18 120.294 25.26V25.638C120.642 24.99 121.092 24.462 121.644 24.054C122.196 23.634 122.838 23.424 123.57 23.424C124.218 23.424 124.782 23.592 125.262 23.928C125.742 24.252 126.108 24.708 126.36 25.296C126.624 25.872 126.756 26.544 126.756 27.312C126.756 28.2 126.624 29.01 126.36 29.742C126.108 30.462 125.76 31.086 125.316 31.614C124.872 32.13 124.374 32.526 123.822 32.802C123.27 33.078 122.7 33.216 122.112 33.216C121.536 33.216 120.996 33.072 120.492 32.784C120 32.496 119.616 32.142 119.34 31.722L118.422 36.96H116.802L118.674 26.25C118.71 26.046 118.728 25.878 118.728 25.746C118.728 25.182 118.434 24.9 117.846 24.9L118.422 23.64ZM121.968 31.776C122.532 31.776 123.048 31.596 123.516 31.236C123.996 30.864 124.38 30.354 124.668 29.706C124.956 29.058 125.1 28.314 125.1 27.474C125.1 26.658 124.914 26.016 124.542 25.548C124.17 25.068 123.684 24.828 123.084 24.828C122.604 24.828 122.142 24.978 121.698 25.278C121.266 25.578 120.894 25.998 120.582 26.538C120.27 27.078 120.048 27.714 119.916 28.446L119.592 30.264C119.856 30.744 120.198 31.116 120.618 31.38C121.038 31.644 121.488 31.776 121.968 31.776ZM130.132 29.76C130.108 29.916 130.09 30.06 130.078 30.192C130.066 30.312 130.06 30.42 130.06 30.516C130.06 30.924 130.18 31.242 130.42 31.47C130.672 31.698 131.002 31.812 131.41 31.812C131.614 31.812 131.818 31.788 132.022 31.74C132.226 31.692 132.412 31.626 132.58 31.542L132.742 32.856C132.526 32.964 132.274 33.048 131.986 33.108C131.698 33.18 131.386 33.216 131.05 33.216C130.33 33.216 129.712 33.012 129.196 32.604C128.692 32.184 128.44 31.554 128.44 30.714C128.44 30.402 128.464 30.096 128.512 29.796L130.276 19.68H131.896L130.132 29.76ZM136.915 31.56C137.371 31.56 137.815 31.416 138.247 31.128C138.691 30.84 139.081 30.426 139.417 29.886C139.753 29.334 139.987 28.668 140.119 27.888L140.857 23.64H142.477L140.839 33.108C140.695 33.936 140.473 34.614 140.173 35.142C139.885 35.67 139.543 36.078 139.147 36.366C138.763 36.666 138.355 36.876 137.923 36.996C137.491 37.116 137.065 37.176 136.645 37.176C135.829 37.176 135.133 37.008 134.557 36.672C133.993 36.336 133.531 35.946 133.171 35.502L134.431 34.566C135.019 35.37 135.793 35.772 136.753 35.772C137.353 35.772 137.881 35.55 138.337 35.106C138.793 34.662 139.117 33.906 139.309 32.838L139.651 30.93C139.291 31.506 138.835 31.998 138.283 32.406C137.731 32.802 137.095 33 136.375 33C135.907 33 135.475 32.898 135.079 32.694C134.683 32.478 134.365 32.172 134.125 31.776C133.885 31.38 133.765 30.912 133.765 30.372C133.765 30.24 133.765 30.09 133.765 29.922C133.777 29.754 133.801 29.574 133.837 29.382L134.809 23.64H136.429L135.439 29.346C135.403 29.562 135.385 29.766 135.385 29.958C135.385 30.498 135.535 30.9 135.835 31.164C136.147 31.428 136.507 31.56 136.915 31.56ZM152.564 22.488L150.728 33H149.108L151.322 20.4H153.59L157.28 30.984L159.152 20.4H160.772L158.558 33H156.326L152.564 22.488ZM165.994 33.216C165.106 33.216 164.338 33.036 163.69 32.676C163.042 32.316 162.538 31.818 162.178 31.182C161.83 30.534 161.656 29.802 161.656 28.986C161.656 27.942 161.866 27 162.286 26.16C162.718 25.32 163.318 24.654 164.086 24.162C164.854 23.67 165.76 23.424 166.804 23.424C167.692 23.424 168.46 23.604 169.108 23.964C169.756 24.324 170.254 24.822 170.602 25.458C170.962 26.094 171.142 26.826 171.142 27.654C171.142 28.686 170.932 29.628 170.512 30.48C170.092 31.32 169.492 31.986 168.712 32.478C167.944 32.97 167.038 33.216 165.994 33.216ZM166.048 31.776C166.768 31.776 167.38 31.602 167.884 31.254C168.4 30.894 168.796 30.414 169.072 29.814C169.348 29.214 169.486 28.542 169.486 27.798C169.486 27.246 169.378 26.754 169.162 26.322C168.946 25.878 168.634 25.524 168.226 25.26C167.818 24.996 167.326 24.864 166.75 24.864C166.042 24.864 165.43 25.044 164.914 25.404C164.398 25.752 164.002 26.226 163.726 26.826C163.45 27.426 163.312 28.098 163.312 28.842C163.312 29.382 163.42 29.874 163.636 30.318C163.852 30.762 164.164 31.116 164.572 31.38C164.98 31.644 165.472 31.776 166.048 31.776ZM173.877 33L172.473 23.766L174.039 23.55L175.101 31.2L178.503 24.306H180.213L181.149 31.2L184.929 23.55L186.261 24.234L181.779 33H179.997L179.061 26.124L175.659 33H173.877ZM194.124 20.4H201.504L201.252 21.876H195.564L194.898 25.728H199.614L199.362 27.132H194.646L193.62 33H191.91L194.124 20.4ZM204.824 33.216C203.936 33.216 203.168 33.036 202.52 32.676C201.872 32.316 201.368 31.818 201.008 31.182C200.66 30.534 200.486 29.802 200.486 28.986C200.486 27.942 200.696 27 201.116 26.16C201.548 25.32 202.148 24.654 202.916 24.162C203.684 23.67 204.59 23.424 205.634 23.424C206.522 23.424 207.29 23.604 207.938 23.964C208.586 24.324 209.084 24.822 209.432 25.458C209.792 26.094 209.972 26.826 209.972 27.654C209.972 28.686 209.762 29.628 209.342 30.48C208.922 31.32 208.322 31.986 207.542 32.478C206.774 32.97 205.868 33.216 204.824 33.216ZM204.878 31.776C205.598 31.776 206.21 31.602 206.714 31.254C207.23 30.894 207.626 30.414 207.902 29.814C208.178 29.214 208.316 28.542 208.316 27.798C208.316 27.246 208.208 26.754 207.992 26.322C207.776 25.878 207.464 25.524 207.056 25.26C206.648 24.996 206.156 24.864 205.58 24.864C204.872 24.864 204.26 25.044 203.744 25.404C203.228 25.752 202.832 26.226 202.556 26.826C202.28 27.426 202.142 28.098 202.142 28.842C202.142 29.382 202.25 29.874 202.466 30.318C202.682 30.762 202.994 31.116 203.402 31.38C203.81 31.644 204.302 31.776 204.878 31.776ZM212.755 26.268C212.767 26.208 212.773 26.142 212.773 26.07C212.785 25.986 212.791 25.902 212.791 25.818C212.791 25.482 212.695 25.248 212.503 25.116C212.311 24.972 212.059 24.9 211.747 24.9L212.305 23.64C212.941 23.64 213.427 23.796 213.763 24.108C214.111 24.408 214.285 24.858 214.285 25.458V25.818C214.633 24.966 215.077 24.354 215.617 23.982C216.169 23.61 216.793 23.424 217.489 23.424C217.765 23.424 217.999 23.448 218.191 23.496C218.395 23.532 218.563 23.58 218.695 23.64L217.975 25.224C217.831 25.164 217.681 25.122 217.525 25.098C217.369 25.074 217.189 25.062 216.985 25.062C216.553 25.062 216.121 25.218 215.689 25.53C215.269 25.83 214.885 26.334 214.537 27.042C214.201 27.75 213.925 28.722 213.709 29.958L213.187 33H211.567L212.755 26.268ZM226.292 20.4H233.672L233.42 21.876H227.732L227.066 25.728H231.782L231.53 27.132H226.814L225.788 33H224.078L226.292 20.4ZM234.569 26.268C234.581 26.208 234.587 26.142 234.587 26.07C234.599 25.986 234.605 25.902 234.605 25.818C234.605 25.482 234.509 25.248 234.317 25.116C234.125 24.972 233.873 24.9 233.561 24.9L234.119 23.64C234.755 23.64 235.241 23.796 235.577 24.108C235.925 24.408 236.099 24.858 236.099 25.458V25.818C236.447 24.966 236.891 24.354 237.431 23.982C237.983 23.61 238.607 23.424 239.303 23.424C239.579 23.424 239.813 23.448 240.005 23.496C240.209 23.532 240.377 23.58 240.509 23.64L239.789 25.224C239.645 25.164 239.495 25.122 239.339 25.098C239.183 25.074 239.003 25.062 238.799 25.062C238.367 25.062 237.935 25.218 237.503 25.53C237.083 25.83 236.699 26.334 236.351 27.042C236.015 27.75 235.739 28.722 235.523 29.958L235.001 33H233.381L234.569 26.268ZM244.262 33.216C243.47 33.216 242.768 33.048 242.156 32.712C241.556 32.364 241.082 31.872 240.734 31.236C240.398 30.588 240.23 29.826 240.23 28.95C240.23 27.954 240.434 27.036 240.842 26.196C241.262 25.356 241.85 24.684 242.606 24.18C243.374 23.676 244.268 23.424 245.288 23.424C245.984 23.424 246.572 23.556 247.052 23.82C247.544 24.084 247.922 24.426 248.186 24.846C248.45 25.266 248.582 25.716 248.582 26.196C248.582 26.856 248.426 27.402 248.114 27.834C247.802 28.266 247.4 28.602 246.908 28.842C246.416 29.07 245.882 29.232 245.306 29.328C244.742 29.424 244.202 29.472 243.686 29.472C243.362 29.472 243.038 29.46 242.714 29.436C242.402 29.4 242.126 29.364 241.886 29.328C241.982 30.12 242.264 30.726 242.732 31.146C243.2 31.566 243.8 31.776 244.532 31.776C245.132 31.776 245.666 31.698 246.134 31.542C246.602 31.386 246.998 31.23 247.322 31.074L247.466 32.514C247.106 32.682 246.65 32.844 246.098 33C245.546 33.144 244.934 33.216 244.262 33.216ZM245.162 24.792C244.598 24.792 244.088 24.936 243.632 25.224C243.176 25.5 242.798 25.884 242.498 26.376C242.21 26.856 242.018 27.408 241.922 28.032C242.198 28.08 242.474 28.122 242.75 28.158C243.038 28.182 243.35 28.194 243.686 28.194C244.694 28.194 245.492 28.056 246.08 27.78C246.668 27.492 246.962 27.006 246.962 26.322C246.962 25.902 246.794 25.542 246.458 25.242C246.134 24.942 245.702 24.792 245.162 24.792ZM253.579 33.216C252.787 33.216 252.085 33.048 251.473 32.712C250.873 32.364 250.399 31.872 250.051 31.236C249.715 30.588 249.547 29.826 249.547 28.95C249.547 27.954 249.751 27.036 250.159 26.196C250.579 25.356 251.167 24.684 251.923 24.18C252.691 23.676 253.585 23.424 254.605 23.424C255.301 23.424 255.889 23.556 256.369 23.82C256.861 24.084 257.239 24.426 257.503 24.846C257.767 25.266 257.899 25.716 257.899 26.196C257.899 26.856 257.743 27.402 257.431 27.834C257.119 28.266 256.717 28.602 256.225 28.842C255.733 29.07 255.199 29.232 254.623 29.328C254.059 29.424 253.519 29.472 253.003 29.472C252.679 29.472 252.355 29.46 252.031 29.436C251.719 29.4 251.443 29.364 251.203 29.328C251.299 30.12 251.581 30.726 252.049 31.146C252.517 31.566 253.117 31.776 253.849 31.776C254.449 31.776 254.983 31.698 255.451 31.542C255.919 31.386 256.315 31.23 256.639 31.074L256.783 32.514C256.423 32.682 255.967 32.844 255.415 33C254.863 33.144 254.251 33.216 253.579 33.216ZM254.479 24.792C253.915 24.792 253.405 24.936 252.949 25.224C252.493 25.5 252.115 25.884 251.815 26.376C251.527 26.856 251.335 27.408 251.239 28.032C251.515 28.08 251.791 28.122 252.067 28.158C252.355 28.182 252.667 28.194 253.003 28.194C254.011 28.194 254.809 28.056 255.397 27.78C255.985 27.492 256.279 27.006 256.279 26.322C256.279 25.902 256.111 25.542 255.775 25.242C255.451 24.942 255.019 24.792 254.479 24.792Z" fill="white"/>
<g clip-path="url(#clip0_12244_167)">
<path d="M273.077 27.5002L268.539 22.9627L269.835 21.6665L275.669 27.5002L269.835 33.3338L268.539 32.0377L273.077 27.5002Z" fill="white"/>
</g>
<path d="M53.7067 77.44C53.7067 76.964 53.6413 76.614 53.5107 76.39C53.38 76.1567 53.1187 76.04 52.7267 76.04H52.4467V75.76H56.0867C57.104 75.76 57.986 75.928 58.7327 76.264C59.4887 76.6 59.8667 77.2487 59.8667 78.21C59.8667 78.6487 59.7173 79.0453 59.4187 79.4C59.12 79.7547 58.6627 80.0347 58.0467 80.24C58.9053 80.38 59.5027 80.6367 59.8387 81.01C60.184 81.374 60.3567 81.864 60.3567 82.48C60.3567 83.4227 59.9833 84.0807 59.2367 84.454C58.4993 84.818 57.5893 85 56.5067 85H53.7067V77.44ZM56.2967 80.03C56.6793 80.03 57.0387 79.96 57.3747 79.82C57.72 79.6707 58 79.456 58.2147 79.176C58.4293 78.8867 58.5367 78.5413 58.5367 78.14C58.5367 77.72 58.4107 77.37 58.1587 77.09C57.9067 76.8007 57.5847 76.5907 57.1927 76.46C56.81 76.32 56.418 76.25 56.0167 76.25C55.69 76.25 55.34 76.2967 54.9667 76.39V80.03H56.2967ZM56.2967 84.51C57.146 84.51 57.7993 84.342 58.2567 84.006C58.7233 83.67 58.9567 83.1847 58.9567 82.55C58.9567 81.9153 58.728 81.43 58.2707 81.094C57.8227 80.758 57.1647 80.59 56.2967 80.59H54.9667V84.314C55.4147 84.4447 55.858 84.51 56.2967 84.51ZM62.4016 87.38C62.859 87.38 63.2323 87.2727 63.5216 87.058C63.8203 86.8527 64.077 86.47 64.2916 85.91L64.5716 85.14L62.3316 79.68C62.0703 79.008 61.557 78.6347 60.7916 78.56V78.28H61.9816C62.7936 78.28 63.3536 78.6533 63.6616 79.4L65.2576 83.278L67.0216 78.42H67.7216L64.9916 85.91C64.721 86.6473 64.4223 87.1467 64.0956 87.408C63.769 87.6693 63.3443 87.8 62.8216 87.8H62.4016V87.38ZM75.333 85.14C74.661 85.14 74.0917 84.9907 73.625 84.692C73.1677 84.384 72.8224 83.9733 72.589 83.46C72.365 82.9373 72.253 82.354 72.253 81.71C72.253 81.066 72.365 80.4873 72.589 79.974C72.8224 79.4513 73.1677 79.0407 73.625 78.742C74.0917 78.434 74.661 78.28 75.333 78.28C76.3597 78.28 77.0364 78.4433 77.363 78.77C77.5217 78.9287 77.6197 79.1247 77.657 79.358C77.6944 79.582 77.713 79.9927 77.713 80.59H77.433C77.3957 80.0113 77.2137 79.5773 76.887 79.288C76.5604 78.9893 76.1357 78.84 75.613 78.84C74.941 78.84 74.4324 79.106 74.087 79.638C73.751 80.17 73.583 80.8607 73.583 81.71C73.583 82.5593 73.751 83.25 74.087 83.782C74.4324 84.314 74.941 84.58 75.613 84.58C76.089 84.58 76.481 84.4913 76.789 84.314C77.097 84.1273 77.3817 83.8427 77.643 83.46L77.923 83.67C77.615 84.1927 77.251 84.5707 76.831 84.804C76.411 85.028 75.9117 85.14 75.333 85.14ZM79.4546 77.44C79.4546 76.964 79.3893 76.614 79.2586 76.39C79.128 76.1567 78.8666 76.04 78.4746 76.04H78.1946V75.76H79.4546C79.8 75.76 80.0566 75.8067 80.2246 75.9C80.402 75.984 80.528 76.1427 80.6026 76.376C80.6773 76.6093 80.7146 76.964 80.7146 77.44V85H79.4546V77.44ZM83.5312 77.58C83.3166 77.58 83.1299 77.4913 82.9713 77.314C82.8219 77.1367 82.7473 76.9267 82.7473 76.684C82.7473 76.488 82.8033 76.334 82.9153 76.222C83.0366 76.11 83.1953 76.054 83.3913 76.054C83.6059 76.054 83.7879 76.1427 83.9373 76.32C84.0959 76.4973 84.1753 76.7073 84.1753 76.95C84.1753 77.146 84.1146 77.3 83.9933 77.412C83.8813 77.524 83.7273 77.58 83.5312 77.58ZM82.9993 80.1C82.9993 79.624 82.9339 79.274 82.8033 79.05C82.6726 78.8167 82.4113 78.7 82.0193 78.7H81.7392V78.42H82.9993C83.3446 78.42 83.6013 78.4667 83.7693 78.56C83.9466 78.644 84.0726 78.8027 84.1473 79.036C84.2219 79.2693 84.2593 79.624 84.2593 80.1V85H82.9993V80.1ZM88.9366 85.14C88.2646 85.14 87.6952 84.9907 87.2286 84.692C86.7712 84.384 86.4259 83.9733 86.1926 83.46C85.9686 82.9373 85.8566 82.354 85.8566 81.71C85.8566 81.066 85.9686 80.4873 86.1926 79.974C86.4259 79.4513 86.7712 79.0407 87.2286 78.742C87.6952 78.434 88.2646 78.28 88.9366 78.28C89.9632 78.28 90.6399 78.4433 90.9666 78.77C91.1252 78.9287 91.2232 79.1247 91.2606 79.358C91.2979 79.582 91.3166 79.9927 91.3166 80.59H91.0366C90.9992 80.0113 90.8172 79.5773 90.4906 79.288C90.1639 78.9893 89.7392 78.84 89.2166 78.84C88.5446 78.84 88.0359 79.106 87.6906 79.638C87.3546 80.17 87.1866 80.8607 87.1866 81.71C87.1866 82.5593 87.3546 83.25 87.6906 83.782C88.0359 84.314 88.5446 84.58 89.2166 84.58C89.6926 84.58 90.0846 84.4913 90.3926 84.314C90.7006 84.1273 90.9852 83.8427 91.2466 83.46L91.5266 83.67C91.2186 84.1927 90.8546 84.5707 90.4346 84.804C90.0146 85.028 89.5152 85.14 88.9366 85.14ZM97.9721 85.14C97.1788 85.14 96.5021 84.7667 95.9421 84.02L94.2621 81.78V85H93.0021V77.44C93.0021 76.964 92.9368 76.614 92.8061 76.39C92.6755 76.1567 92.4141 76.04 92.0221 76.04H91.7421V75.76H93.0021C93.3475 75.76 93.6041 75.8067 93.7721 75.9C93.9495 75.984 94.0755 76.1427 94.1501 76.376C94.2248 76.6093 94.2621 76.964 94.2621 77.44V81.57L96.0121 79.33C96.2548 79.0313 96.5115 78.8073 96.7821 78.658C97.0528 78.4993 97.4028 78.42 97.8321 78.42H98.2521V78.77C98.0001 78.77 97.7575 78.8213 97.5241 78.924C97.2908 79.0267 97.0901 79.1853 96.9221 79.4L95.3821 81.36L97.1321 83.6C97.4028 83.9547 97.6548 84.2207 97.8881 84.398C98.1308 84.5753 98.3921 84.6873 98.6721 84.734V85C98.4668 85.0933 98.2335 85.14 97.9721 85.14ZM100.539 77.58C100.324 77.58 100.138 77.4913 99.9791 77.314C99.8297 77.1367 99.7551 76.9267 99.7551 76.684C99.7551 76.488 99.8111 76.334 99.9231 76.222C100.044 76.11 100.203 76.054 100.399 76.054C100.614 76.054 100.796 76.1427 100.945 76.32C101.104 76.4973 101.183 76.7073 101.183 76.95C101.183 77.146 101.122 77.3 101.001 77.412C100.889 77.524 100.735 77.58 100.539 77.58ZM100.007 80.1C100.007 79.624 99.9417 79.274 99.8111 79.05C99.6804 78.8167 99.4191 78.7 99.0271 78.7H98.7471V78.42H100.007C100.352 78.42 100.609 78.4667 100.777 78.56C100.954 78.644 101.08 78.8027 101.155 79.036C101.23 79.2693 101.267 79.624 101.267 80.1V85H100.007V80.1ZM103.452 80.1C103.452 79.624 103.387 79.274 103.256 79.05C103.126 78.8167 102.864 78.7 102.472 78.7H102.192V78.42H103.452C103.798 78.42 104.059 78.4667 104.236 78.56C104.423 78.6533 104.558 78.7933 104.642 78.98H104.712C104.908 78.784 105.16 78.6207 105.468 78.49C105.786 78.35 106.14 78.28 106.532 78.28C107.232 78.28 107.802 78.4667 108.24 78.84C108.688 79.2133 108.912 79.8667 108.912 80.8V85H107.652V80.8C107.652 80.1467 107.503 79.6707 107.204 79.372C106.915 79.064 106.551 78.91 106.112 78.91C105.618 78.91 105.151 79.1573 104.712 79.652V85H103.452V80.1ZM113.294 87.8C112.351 87.8 111.6 87.6273 111.04 87.282C110.489 86.9367 110.214 86.386 110.214 85.63C110.214 85.2007 110.358 84.8273 110.648 84.51C110.937 84.1927 111.306 83.9593 111.754 83.81C111.38 83.6047 111.194 83.3247 111.194 82.97C111.194 82.7833 111.236 82.6387 111.32 82.536C111.404 82.4333 111.525 82.3213 111.684 82.2C111.385 82.0507 111.133 81.8173 110.928 81.5C110.732 81.1827 110.634 80.8093 110.634 80.38C110.634 78.98 111.52 78.28 113.294 78.28H115.884V78.63L114.974 78.77V78.84C115.263 78.9893 115.496 79.1993 115.674 79.47C115.86 79.7313 115.954 80.0347 115.954 80.38C115.954 81.78 115.067 82.48 113.294 82.48C112.314 82.48 111.824 82.6433 111.824 82.97C111.824 83.2967 112.314 83.46 113.294 83.46C114.199 83.46 114.936 83.642 115.506 84.006C116.084 84.3607 116.374 84.902 116.374 85.63C116.374 86.386 116.094 86.9367 115.534 87.282C114.983 87.6273 114.236 87.8 113.294 87.8ZM113.294 81.99C113.714 81.99 114.05 81.864 114.302 81.612C114.563 81.3507 114.694 80.94 114.694 80.38C114.694 79.848 114.563 79.4467 114.302 79.176C114.05 78.9053 113.714 78.77 113.294 78.77C112.874 78.77 112.533 78.9007 112.272 79.162C112.02 79.414 111.894 79.82 111.894 80.38C111.894 80.94 112.02 81.3507 112.272 81.612C112.533 81.864 112.874 81.99 113.294 81.99ZM113.294 87.24C113.854 87.24 114.297 87.1047 114.624 86.834C114.95 86.5727 115.114 86.1713 115.114 85.63C115.114 84.6967 114.554 84.16 113.434 84.02L112.664 83.95C112.281 84.0993 111.987 84.3093 111.782 84.58C111.576 84.8507 111.474 85.2007 111.474 85.63C111.474 86.1713 111.637 86.5727 111.964 86.834C112.29 87.1047 112.734 87.24 113.294 87.24ZM133.036 79.05C132.756 79.05 132.532 78.966 132.364 78.798C132.206 78.6207 132.126 78.378 132.126 78.07C132.126 76.922 132.64 76.0587 133.666 75.48L133.806 75.69C133.433 75.942 133.153 76.222 132.966 76.53C132.78 76.8287 132.686 77.1787 132.686 77.58L133.106 77.44C133.321 77.44 133.503 77.5147 133.652 77.664C133.802 77.8133 133.876 77.9953 133.876 78.21C133.876 78.4527 133.797 78.6533 133.638 78.812C133.48 78.9707 133.279 79.05 133.036 79.05ZM142.62 85.07C142.172 85.07 141.729 84.9487 141.29 84.706C140.851 84.454 140.501 83.9687 140.24 83.25L139.89 82.34H135.97L134.85 85H134.22L138.14 75.76H138.56L141.64 83.25C141.873 83.7913 142.093 84.1647 142.298 84.37C142.503 84.566 142.797 84.6827 143.18 84.72V85C143.012 85.0467 142.825 85.07 142.62 85.07ZM139.61 81.78L137.93 77.72L136.18 81.78H139.61ZM144.017 80.1C144.017 79.624 143.951 79.274 143.821 79.05C143.69 78.8167 143.429 78.7 143.037 78.7H142.757V78.42H144.017C144.371 78.42 144.637 78.4713 144.815 78.574C145.001 78.6673 145.132 78.826 145.207 79.05H145.277C145.445 78.8353 145.683 78.6533 145.991 78.504C146.299 78.3547 146.691 78.28 147.167 78.28C147.969 78.28 148.59 78.6067 149.029 79.26C149.467 79.904 149.687 80.7207 149.687 81.71C149.687 82.7087 149.458 83.53 149.001 84.174C148.553 84.818 147.895 85.14 147.027 85.14C146.672 85.14 146.359 85.1027 146.089 85.028C145.818 84.9533 145.547 84.8507 145.277 84.72V87.66H144.017V80.1ZM146.607 84.58C147.204 84.58 147.643 84.3187 147.923 83.796C148.212 83.2733 148.357 82.578 148.357 81.71C148.357 80.8513 148.221 80.1607 147.951 79.638C147.68 79.106 147.279 78.84 146.747 78.84C146.121 78.84 145.631 79.12 145.277 79.68V84.16C145.557 84.2907 145.799 84.3933 146.005 84.468C146.21 84.5427 146.411 84.58 146.607 84.58ZM151.55 80.1C151.55 79.624 151.485 79.274 151.354 79.05C151.223 78.8167 150.962 78.7 150.57 78.7H150.29V78.42H151.55C151.905 78.42 152.171 78.4713 152.348 78.574C152.535 78.6673 152.665 78.826 152.74 79.05H152.81C152.978 78.8353 153.216 78.6533 153.524 78.504C153.832 78.3547 154.224 78.28 154.7 78.28C155.503 78.28 156.123 78.6067 156.562 79.26C157.001 79.904 157.22 80.7207 157.22 81.71C157.22 82.7087 156.991 83.53 156.534 84.174C156.086 84.818 155.428 85.14 154.56 85.14C154.205 85.14 153.893 85.1027 153.622 85.028C153.351 84.9533 153.081 84.8507 152.81 84.72V87.66H151.55V80.1ZM154.14 84.58C154.737 84.58 155.176 84.3187 155.456 83.796C155.745 83.2733 155.89 82.578 155.89 81.71C155.89 80.8513 155.755 80.1607 155.484 79.638C155.213 79.106 154.812 78.84 154.28 78.84C153.655 78.84 153.165 79.12 152.81 79.68V84.16C153.09 84.2907 153.333 84.3933 153.538 84.468C153.743 84.5427 153.944 84.58 154.14 84.58ZM158.929 77.44C158.929 76.964 158.864 76.614 158.733 76.39C158.603 76.1567 158.341 76.04 157.949 76.04H157.669V75.76H158.929C159.275 75.76 159.531 75.8067 159.699 75.9C159.877 75.984 160.003 76.1427 160.077 76.376C160.152 76.6093 160.189 76.964 160.189 77.44V85H158.929V77.44ZM162.726 87.38C163.183 87.38 163.557 87.2727 163.846 87.058C164.145 86.8527 164.401 86.47 164.616 85.91L164.896 85.14L162.656 79.68C162.395 79.008 161.881 78.6347 161.116 78.56V78.28H162.306C163.118 78.28 163.678 78.6533 163.986 79.4L165.582 83.278L167.346 78.42H168.046L165.316 85.91C165.045 86.6473 164.747 87.1467 164.42 87.408C164.093 87.6693 163.669 87.8 163.146 87.8H162.726V87.38ZM173.165 80.1C173.165 79.624 173.1 79.274 172.969 79.05C172.839 78.8167 172.577 78.7 172.185 78.7H171.905V78.42H173.165C173.511 78.42 173.772 78.4667 173.949 78.56C174.136 78.6533 174.271 78.7933 174.355 78.98H174.425C174.621 78.784 174.873 78.6207 175.181 78.49C175.499 78.35 175.853 78.28 176.245 78.28C176.945 78.28 177.515 78.4667 177.953 78.84C178.401 79.2133 178.625 79.8667 178.625 80.8V85H177.365V80.8C177.365 80.1467 177.216 79.6707 176.917 79.372C176.628 79.064 176.264 78.91 175.825 78.91C175.331 78.91 174.864 79.1573 174.425 79.652V85H173.165V80.1ZM183.273 85.14C182.638 85.14 182.087 84.9907 181.62 84.692C181.154 84.384 180.799 83.9687 180.557 83.446C180.314 82.9233 180.193 82.3447 180.193 81.71C180.193 81.0753 180.314 80.4967 180.557 79.974C180.799 79.4513 181.154 79.0407 181.62 78.742C182.087 78.434 182.638 78.28 183.273 78.28C183.907 78.28 184.458 78.434 184.925 78.742C185.391 79.0407 185.746 79.4513 185.989 79.974C186.231 80.4967 186.353 81.0753 186.353 81.71C186.353 82.3447 186.231 82.9233 185.989 83.446C185.746 83.9687 185.391 84.384 184.925 84.692C184.458 84.9907 183.907 85.14 183.273 85.14ZM183.273 84.58C183.618 84.58 183.921 84.454 184.183 84.202C184.453 83.95 184.659 83.6047 184.799 83.166C184.948 82.7273 185.023 82.242 185.023 81.71C185.023 81.178 184.948 80.6927 184.799 80.254C184.659 79.8153 184.453 79.47 184.183 79.218C183.921 78.966 183.618 78.84 183.273 78.84C182.927 78.84 182.619 78.966 182.349 79.218C182.087 79.47 181.882 79.8153 181.733 80.254C181.593 80.6927 181.523 81.178 181.523 81.71C181.523 82.242 181.593 82.7273 181.733 83.166C181.882 83.6047 182.087 83.95 182.349 84.202C182.619 84.454 182.927 84.58 183.273 84.58ZM188.209 80.03C187.994 79.5073 187.779 79.1433 187.565 78.938C187.359 78.7233 187.084 78.6067 186.739 78.588V78.308C186.785 78.308 186.855 78.3033 186.949 78.294C187.042 78.2847 187.135 78.28 187.229 78.28C187.733 78.28 188.176 78.4107 188.559 78.672C188.951 78.924 189.277 79.3767 189.539 80.03L190.729 82.97L191.919 79.96C191.695 79.4653 191.48 79.12 191.275 78.924C191.079 78.7187 190.827 78.6067 190.519 78.588V78.308C190.565 78.308 190.635 78.3033 190.729 78.294C190.822 78.2847 190.915 78.28 191.009 78.28C191.513 78.28 191.956 78.4107 192.339 78.672C192.731 78.924 193.057 79.3767 193.319 80.03L194.509 82.97L196.329 78.42H197.029L194.299 85.14H194.019L192.269 80.8L190.519 85.14H190.239L188.209 80.03ZM198.163 78.84C198.536 78.588 198.816 78.3127 199.003 78.014C199.19 77.706 199.283 77.3513 199.283 76.95L198.863 77.09C198.648 77.09 198.466 77.0153 198.317 76.866C198.168 76.7167 198.093 76.5347 198.093 76.32C198.093 76.0773 198.172 75.8767 198.331 75.718C198.49 75.5593 198.69 75.48 198.933 75.48C199.213 75.48 199.432 75.5687 199.591 75.746C199.759 75.914 199.843 76.152 199.843 76.46C199.843 77.608 199.33 78.4713 198.303 79.05L198.163 78.84ZM210.946 86.96C211.319 86.708 211.599 86.428 211.786 86.12C211.972 85.812 212.066 85.462 212.066 85.07C211.935 85.1633 211.795 85.21 211.646 85.21C211.431 85.21 211.249 85.1353 211.1 84.986C210.95 84.8367 210.876 84.6547 210.876 84.44C210.876 84.1973 210.955 83.9967 211.114 83.838C211.282 83.6793 211.487 83.6 211.73 83.6C211.982 83.6 212.192 83.7027 212.36 83.908C212.537 84.104 212.626 84.3467 212.626 84.636C212.626 85.7653 212.112 86.61 211.086 87.17L210.946 86.96ZM218.384 87.38C218.841 87.38 219.215 87.2727 219.504 87.058C219.803 86.8527 220.059 86.47 220.274 85.91L220.554 85.14L218.314 79.68C218.053 79.008 217.539 78.6347 216.774 78.56V78.28H217.964C218.776 78.28 219.336 78.6533 219.644 79.4L221.24 83.278L223.004 78.42H223.704L220.974 85.91C220.703 86.6473 220.405 87.1467 220.078 87.408C219.751 87.6693 219.327 87.8 218.804 87.8H218.384V87.38ZM227.692 85.14C227.058 85.14 226.507 84.9907 226.04 84.692C225.574 84.384 225.219 83.9687 224.976 83.446C224.734 82.9233 224.612 82.3447 224.612 81.71C224.612 81.0753 224.734 80.4967 224.976 79.974C225.219 79.4513 225.574 79.0407 226.04 78.742C226.507 78.434 227.058 78.28 227.692 78.28C228.327 78.28 228.878 78.434 229.344 78.742C229.811 79.0407 230.166 79.4513 230.408 79.974C230.651 80.4967 230.772 81.0753 230.772 81.71C230.772 82.3447 230.651 82.9233 230.408 83.446C230.166 83.9687 229.811 84.384 229.344 84.692C228.878 84.9907 228.327 85.14 227.692 85.14ZM227.692 84.58C228.038 84.58 228.341 84.454 228.602 84.202C228.873 83.95 229.078 83.6047 229.218 83.166C229.368 82.7273 229.442 82.242 229.442 81.71C229.442 81.178 229.368 80.6927 229.218 80.254C229.078 79.8153 228.873 79.47 228.602 79.218C228.341 78.966 228.038 78.84 227.692 78.84C227.347 78.84 227.039 78.966 226.768 79.218C226.507 79.47 226.302 79.8153 226.152 80.254C226.012 80.6927 225.942 81.178 225.942 81.71C225.942 82.242 226.012 82.7273 226.152 83.166C226.302 83.6047 226.507 83.95 226.768 84.202C227.039 84.454 227.347 84.58 227.692 84.58ZM234.808 85.14C234.108 85.14 233.534 84.9533 233.086 84.58C232.648 84.2067 232.428 83.5533 232.428 82.62V80.1C232.428 79.624 232.363 79.274 232.232 79.05C232.102 78.8167 231.84 78.7 231.448 78.7H231.308V78.42H232.428C232.774 78.42 233.03 78.4667 233.198 78.56C233.376 78.644 233.502 78.8027 233.576 79.036C233.651 79.2693 233.688 79.624 233.688 80.1V82.62C233.688 83.2733 233.833 83.754 234.122 84.062C234.421 84.3607 234.79 84.51 235.228 84.51C235.723 84.51 236.19 84.2627 236.628 83.768V78.42H237.888V85H237.188L236.698 84.44H236.628C236.432 84.636 236.176 84.804 235.858 84.944C235.55 85.0747 235.2 85.14 234.808 85.14ZM244.974 85.14C244.676 85.14 244.372 85.0793 244.064 84.958C243.756 84.8273 243.49 84.6173 243.266 84.328C243.052 84.0387 242.944 83.656 242.944 83.18C242.944 82.4707 243.271 81.9667 243.924 81.668C244.587 81.3693 245.45 81.22 246.514 81.22H246.934C246.934 80.3053 246.808 79.68 246.556 79.344C246.304 79.008 245.94 78.84 245.464 78.84C245.044 78.84 244.708 78.9287 244.456 79.106C244.204 79.2833 244.027 79.5913 243.924 80.03H243.294C243.294 79.7127 243.313 79.4653 243.35 79.288C243.388 79.1013 243.486 78.9287 243.644 78.77C243.812 78.602 244.088 78.4807 244.47 78.406C244.862 78.322 245.287 78.28 245.744 78.28C246.5 78.28 247.098 78.4853 247.536 78.896C247.975 79.2973 248.194 80.072 248.194 81.22V85H247.494L247.004 84.37H246.934C246.766 84.5847 246.519 84.7667 246.192 84.916C245.866 85.0653 245.46 85.14 244.974 85.14ZM245.604 84.51C245.912 84.51 246.169 84.4353 246.374 84.286C246.58 84.1367 246.766 83.9313 246.934 83.67V81.78H246.514C245.824 81.78 245.278 81.9107 244.876 82.172C244.475 82.424 244.274 82.76 244.274 83.18C244.274 83.6093 244.4 83.9407 244.652 84.174C244.914 84.398 245.231 84.51 245.604 84.51ZM252.583 87.8C251.64 87.8 250.889 87.6273 250.329 87.282C249.778 86.9367 249.503 86.386 249.503 85.63C249.503 85.2007 249.647 84.8273 249.937 84.51C250.226 84.1927 250.595 83.9593 251.043 83.81C250.669 83.6047 250.483 83.3247 250.483 82.97C250.483 82.7833 250.525 82.6387 250.609 82.536C250.693 82.4333 250.814 82.3213 250.973 82.2C250.674 82.0507 250.422 81.8173 250.217 81.5C250.021 81.1827 249.923 80.8093 249.923 80.38C249.923 78.98 250.809 78.28 252.583 78.28H255.173V78.63L254.263 78.77V78.84C254.552 78.9893 254.785 79.1993 254.963 79.47C255.149 79.7313 255.243 80.0347 255.243 80.38C255.243 81.78 254.356 82.48 252.583 82.48C251.603 82.48 251.113 82.6433 251.113 82.97C251.113 83.2967 251.603 83.46 252.583 83.46C253.488 83.46 254.225 83.642 254.795 84.006C255.373 84.3607 255.663 84.902 255.663 85.63C255.663 86.386 255.383 86.9367 254.823 87.282C254.272 87.6273 253.525 87.8 252.583 87.8ZM252.583 81.99C253.003 81.99 253.339 81.864 253.591 81.612C253.852 81.3507 253.983 80.94 253.983 80.38C253.983 79.848 253.852 79.4467 253.591 79.176C253.339 78.9053 253.003 78.77 252.583 78.77C252.163 78.77 251.822 78.9007 251.561 79.162C251.309 79.414 251.183 79.82 251.183 80.38C251.183 80.94 251.309 81.3507 251.561 81.612C251.822 81.864 252.163 81.99 252.583 81.99ZM252.583 87.24C253.143 87.24 253.586 87.1047 253.913 86.834C254.239 86.5727 254.403 86.1713 254.403 85.63C254.403 84.6967 253.843 84.16 252.723 84.02L251.953 83.95C251.57 84.0993 251.276 84.3093 251.071 84.58C250.865 84.8507 250.763 85.2007 250.763 85.63C250.763 86.1713 250.926 86.5727 251.253 86.834C251.579 87.1047 252.023 87.24 252.583 87.24ZM257.149 80.1C257.149 79.624 257.084 79.274 256.953 79.05C256.823 78.8167 256.561 78.7 256.169 78.7H256.029V78.42H257.149C257.504 78.42 257.77 78.4713 257.947 78.574C258.134 78.6673 258.265 78.826 258.339 79.05H258.409C258.577 78.8353 258.801 78.6533 259.081 78.504C259.371 78.3547 259.707 78.28 260.089 78.28C260.463 78.28 260.743 78.35 260.929 78.49C261.088 78.6113 261.251 78.8213 261.419 79.12L260.859 79.54C260.757 79.4 260.607 79.2973 260.411 79.232C260.215 79.1573 259.991 79.12 259.739 79.12C259.459 79.12 259.203 79.1853 258.969 79.316C258.736 79.4373 258.549 79.6053 258.409 79.82V85H257.149V80.1ZM265.041 85.14C264.406 85.14 263.869 84.9907 263.431 84.692C262.992 84.384 262.661 83.9733 262.437 83.46C262.213 82.9373 262.101 82.354 262.101 81.71C262.101 81.0753 262.213 80.4967 262.437 79.974C262.661 79.4513 262.983 79.0407 263.403 78.742C263.832 78.434 264.331 78.28 264.901 78.28C265.843 78.28 266.543 78.546 267.001 79.078C267.467 79.6007 267.701 80.3613 267.701 81.36L267.673 81.92H263.431C263.431 82.704 263.599 83.3433 263.935 83.838C264.271 84.3327 264.733 84.58 265.321 84.58C265.759 84.58 266.128 84.4867 266.427 84.3C266.735 84.1133 267.019 83.8333 267.281 83.46L267.561 83.67C267.253 84.1833 266.893 84.5567 266.483 84.79C266.072 85.0233 265.591 85.14 265.041 85.14ZM266.371 81.36C266.371 80.5387 266.249 79.9133 266.007 79.484C265.764 79.0547 265.395 78.84 264.901 78.84C264.621 78.84 264.369 78.952 264.145 79.176C263.921 79.3907 263.743 79.6893 263.613 80.072C263.491 80.4547 263.431 80.884 263.431 81.36H266.371ZM271.877 85.14C271.242 85.14 270.705 84.9907 270.267 84.692C269.828 84.384 269.497 83.9733 269.273 83.46C269.049 82.9373 268.937 82.354 268.937 81.71C268.937 81.0753 269.049 80.4967 269.273 79.974C269.497 79.4513 269.819 79.0407 270.239 78.742C270.668 78.434 271.167 78.28 271.737 78.28C272.679 78.28 273.379 78.546 273.837 79.078C274.303 79.6007 274.537 80.3613 274.537 81.36L274.509 81.92H270.267C270.267 82.704 270.435 83.3433 270.771 83.838C271.107 84.3327 271.569 84.58 272.157 84.58C272.595 84.58 272.964 84.4867 273.263 84.3C273.571 84.1133 273.855 83.8333 274.117 83.46L274.397 83.67C274.089 84.1833 273.729 84.5567 273.319 84.79C272.908 85.0233 272.427 85.14 271.877 85.14ZM273.207 81.36C273.207 80.5387 273.085 79.9133 272.843 79.484C272.6 79.0547 272.231 78.84 271.737 78.84C271.457 78.84 271.205 78.952 270.981 79.176C270.757 79.3907 270.579 79.6893 270.449 80.072C270.327 80.4547 270.267 80.884 270.267 81.36H273.207ZM281.597 85.14C281.074 85.14 280.663 84.9907 280.365 84.692C280.066 84.3933 279.917 83.936 279.917 83.32V78.98H278.937V78.42H279.917V77.16L280.617 76.32H281.177V78.42H282.857V78.98H281.177V83.32C281.177 84.16 281.503 84.58 282.157 84.58C282.381 84.58 282.567 84.5567 282.717 84.51C282.875 84.4633 283.039 84.3933 283.207 84.3L283.347 84.58C283.132 84.7387 282.894 84.874 282.633 84.986C282.371 85.0887 282.026 85.14 281.597 85.14ZM287.083 85.14C286.448 85.14 285.898 84.9907 285.431 84.692C284.964 84.384 284.61 83.9687 284.367 83.446C284.124 82.9233 284.003 82.3447 284.003 81.71C284.003 81.0753 284.124 80.4967 284.367 79.974C284.61 79.4513 284.964 79.0407 285.431 78.742C285.898 78.434 286.448 78.28 287.083 78.28C287.718 78.28 288.268 78.434 288.735 78.742C289.202 79.0407 289.556 79.4513 289.799 79.974C290.042 80.4967 290.163 81.0753 290.163 81.71C290.163 82.3447 290.042 82.9233 289.799 83.446C289.556 83.9687 289.202 84.384 288.735 84.692C288.268 84.9907 287.718 85.14 287.083 85.14ZM287.083 84.58C287.428 84.58 287.732 84.454 287.993 84.202C288.264 83.95 288.469 83.6047 288.609 83.166C288.758 82.7273 288.833 82.242 288.833 81.71C288.833 81.178 288.758 80.6927 288.609 80.254C288.469 79.8153 288.264 79.47 287.993 79.218C287.732 78.966 287.428 78.84 287.083 78.84C286.738 78.84 286.43 78.966 286.159 79.218C285.898 79.47 285.692 79.8153 285.543 80.254C285.403 80.6927 285.333 81.178 285.333 81.71C285.333 82.242 285.403 82.7273 285.543 83.166C285.692 83.6047 285.898 83.95 286.159 84.202C286.43 84.454 286.738 84.58 287.083 84.58ZM298.007 85.14C297.372 85.14 296.822 84.9907 296.355 84.692C295.888 84.384 295.534 83.9687 295.291 83.446C295.048 82.9233 294.927 82.3447 294.927 81.71C294.927 81.0753 295.048 80.4967 295.291 79.974C295.534 79.4513 295.888 79.0407 296.355 78.742C296.822 78.434 297.372 78.28 298.007 78.28C298.642 78.28 299.192 78.434 299.659 78.742C300.126 79.0407 300.48 79.4513 300.723 79.974C300.966 80.4967 301.087 81.0753 301.087 81.71C301.087 82.3447 300.966 82.9233 300.723 83.446C300.48 83.9687 300.126 84.384 299.659 84.692C299.192 84.9907 298.642 85.14 298.007 85.14ZM298.007 84.58C298.352 84.58 298.656 84.454 298.917 84.202C299.188 83.95 299.393 83.6047 299.533 83.166C299.682 82.7273 299.757 82.242 299.757 81.71C299.757 81.178 299.682 80.6927 299.533 80.254C299.393 79.8153 299.188 79.47 298.917 79.218C298.656 78.966 298.352 78.84 298.007 78.84C297.662 78.84 297.354 78.966 297.083 79.218C296.822 79.47 296.616 79.8153 296.467 80.254C296.327 80.6927 296.257 81.178 296.257 81.71C296.257 82.242 296.327 82.7273 296.467 83.166C296.616 83.6047 296.822 83.95 297.083 84.202C297.354 84.454 297.662 84.58 298.007 84.58ZM305.123 85.14C304.423 85.14 303.849 84.9533 303.401 84.58C302.962 84.2067 302.743 83.5533 302.743 82.62V80.1C302.743 79.624 302.677 79.274 302.547 79.05C302.416 78.8167 302.155 78.7 301.763 78.7H301.623V78.42H302.743C303.088 78.42 303.345 78.4667 303.513 78.56C303.69 78.644 303.816 78.8027 303.891 79.036C303.965 79.2693 304.003 79.624 304.003 80.1V82.62C304.003 83.2733 304.147 83.754 304.437 84.062C304.735 84.3607 305.104 84.51 305.543 84.51C306.037 84.51 306.504 84.2627 306.943 83.768V78.42H308.203V85H307.503L307.013 84.44H306.943C306.747 84.636 306.49 84.804 306.173 84.944C305.865 85.0747 305.515 85.14 305.123 85.14ZM310.333 80.1C310.333 79.624 310.268 79.274 310.137 79.05C310.006 78.8167 309.745 78.7 309.353 78.7H309.213V78.42H310.333C310.688 78.42 310.954 78.4713 311.131 78.574C311.318 78.6673 311.448 78.826 311.523 79.05H311.593C311.761 78.8353 311.985 78.6533 312.265 78.504C312.554 78.3547 312.89 78.28 313.273 78.28C313.646 78.28 313.926 78.35 314.113 78.49C314.272 78.6113 314.435 78.8213 314.603 79.12L314.043 79.54C313.94 79.4 313.791 79.2973 313.595 79.232C313.399 79.1573 313.175 79.12 312.923 79.12C312.643 79.12 312.386 79.1853 312.153 79.316C311.92 79.4373 311.733 79.6053 311.593 79.82V85H310.333V80.1Z" fill="#818D9D"/>
<path d="M127.411 97.32C126.244 97.32 125.661 97.8567 125.661 98.93H125.381V97.88C125.381 97.1333 125.778 96.76 126.571 96.76H133.081V97.32H129.931V106H128.671V97.32H127.411ZM135.616 106.14C134.981 106.14 134.445 105.991 134.006 105.692C133.567 105.384 133.236 104.973 133.012 104.46C132.788 103.937 132.676 103.354 132.676 102.71C132.676 102.075 132.788 101.497 133.012 100.974C133.236 100.451 133.558 100.041 133.978 99.742C134.407 99.434 134.907 99.28 135.476 99.28C136.419 99.28 137.119 99.546 137.576 100.078C138.043 100.601 138.276 101.361 138.276 102.36L138.248 102.92H134.006C134.006 103.704 134.174 104.343 134.51 104.838C134.846 105.333 135.308 105.58 135.896 105.58C136.335 105.58 136.703 105.487 137.002 105.3C137.31 105.113 137.595 104.833 137.856 104.46L138.136 104.67C137.828 105.183 137.469 105.557 137.058 105.79C136.647 106.023 136.167 106.14 135.616 106.14ZM136.946 102.36C136.946 101.539 136.825 100.913 136.582 100.484C136.339 100.055 135.971 99.84 135.476 99.84C135.196 99.84 134.944 99.952 134.72 100.176C134.496 100.391 134.319 100.689 134.188 101.072C134.067 101.455 134.006 101.884 134.006 102.36H136.946ZM140.002 101.1C140.002 100.624 139.937 100.274 139.806 100.05C139.675 99.8167 139.414 99.7 139.022 99.7H138.882V99.42H140.002C140.357 99.42 140.623 99.4713 140.8 99.574C140.987 99.6673 141.117 99.826 141.192 100.05H141.262C141.43 99.8353 141.654 99.6533 141.934 99.504C142.223 99.3547 142.559 99.28 142.942 99.28C143.315 99.28 143.595 99.35 143.782 99.49C143.941 99.6113 144.104 99.8213 144.272 100.12L143.712 100.54C143.609 100.4 143.46 100.297 143.264 100.232C143.068 100.157 142.844 100.12 142.592 100.12C142.312 100.12 142.055 100.185 141.822 100.316C141.589 100.437 141.402 100.605 141.262 100.82V106H140.002V101.1ZM145.664 101.1C145.664 100.624 145.599 100.274 145.468 100.05C145.338 99.8167 145.076 99.7 144.684 99.7H144.404V99.42H145.664C146.01 99.42 146.271 99.4667 146.448 99.56C146.635 99.6533 146.77 99.7933 146.854 99.98H146.924C147.12 99.784 147.372 99.6207 147.68 99.49C147.998 99.35 148.352 99.28 148.744 99.28C149.136 99.28 149.472 99.3547 149.752 99.504C150.032 99.644 150.256 99.896 150.424 100.26C150.667 99.952 150.975 99.714 151.348 99.546C151.731 99.3687 152.123 99.28 152.524 99.28C153.122 99.28 153.598 99.4667 153.952 99.84C154.307 100.213 154.484 100.867 154.484 101.8V106H153.224V101.8C153.224 101.128 153.131 100.647 152.944 100.358C152.758 100.059 152.478 99.91 152.104 99.91C151.843 99.91 151.568 100.008 151.278 100.204C150.989 100.391 150.774 100.596 150.634 100.82C150.681 100.96 150.704 101.287 150.704 101.8V106H149.444V101.8C149.444 101.128 149.351 100.647 149.164 100.358C148.978 100.059 148.698 99.91 148.324 99.91C147.83 99.91 147.363 100.157 146.924 100.652V106H145.664V101.1ZM158.644 106.14C157.571 106.14 156.848 105.953 156.474 105.58C156.316 105.421 156.218 105.244 156.18 105.048C156.143 104.843 156.124 104.53 156.124 104.11H156.404C156.488 104.577 156.689 104.941 157.006 105.202C157.333 105.454 157.786 105.58 158.364 105.58C158.878 105.58 159.26 105.491 159.512 105.314C159.774 105.137 159.904 104.899 159.904 104.6C159.904 104.329 159.802 104.096 159.596 103.9C159.4 103.704 159.083 103.517 158.644 103.34L157.804 102.99C157.244 102.766 156.824 102.505 156.544 102.206C156.264 101.907 156.124 101.539 156.124 101.1C156.124 100.531 156.339 100.087 156.768 99.77C157.198 99.4433 157.753 99.28 158.434 99.28C159.461 99.28 160.161 99.4667 160.534 99.84C160.693 99.9987 160.791 100.176 160.828 100.372C160.866 100.568 160.884 100.881 160.884 101.31H160.604C160.53 100.843 160.334 100.484 160.016 100.232C159.699 99.9707 159.265 99.84 158.714 99.84C158.276 99.84 157.93 99.9333 157.678 100.12C157.436 100.297 157.314 100.531 157.314 100.82C157.314 101.305 157.688 101.702 158.434 102.01L159.274 102.36C159.909 102.621 160.371 102.901 160.66 103.2C160.95 103.489 161.094 103.863 161.094 104.32C161.094 104.889 160.866 105.337 160.408 105.664C159.951 105.981 159.363 106.14 158.644 106.14ZM168.715 106.28C167.772 106.28 167.044 106.075 166.531 105.664C166.027 105.244 165.775 104.703 165.775 104.04C165.775 103.676 165.863 103.349 166.041 103.06C166.218 102.761 166.428 102.505 166.671 102.29C166.923 102.075 167.291 101.791 167.777 101.436C167.469 101.156 167.226 100.895 167.049 100.652C166.834 100.381 166.661 100.078 166.531 99.742C166.4 99.3967 166.335 99.0373 166.335 98.664C166.335 97.992 166.559 97.46 167.007 97.068C167.464 96.676 168.08 96.48 168.855 96.48C169.573 96.48 170.138 96.662 170.549 97.026C170.959 97.39 171.165 97.8613 171.165 98.44C171.165 98.8507 171.076 99.2193 170.899 99.546C170.721 99.8633 170.493 100.148 170.213 100.4C169.933 100.652 169.569 100.932 169.121 101.24L171.935 104.32C172.271 103.956 172.579 103.559 172.859 103.13C172.999 102.906 173.111 102.719 173.195 102.57L173.475 102.78C173.372 102.995 173.269 103.191 173.167 103.368C172.887 103.844 172.574 104.269 172.229 104.642L173.475 106H171.935L171.375 105.398C170.591 105.986 169.704 106.28 168.715 106.28ZM168.687 100.75C169.107 100.395 169.424 100.055 169.639 99.728C169.863 99.392 169.975 99.0093 169.975 98.58C169.975 98.0387 169.858 97.6373 169.625 97.376C169.401 97.1053 169.144 96.97 168.855 96.97C168.528 96.97 168.248 97.1053 168.015 97.376C167.781 97.6467 167.665 98.076 167.665 98.664C167.665 98.9907 167.735 99.308 167.875 99.616C168.015 99.9147 168.169 100.167 168.337 100.372C168.505 100.577 168.621 100.703 168.687 100.75ZM168.981 105.79C169.765 105.79 170.465 105.552 171.081 105.076L168.197 101.926C167.842 102.234 167.571 102.542 167.385 102.85C167.198 103.158 167.105 103.508 167.105 103.9C167.105 105.16 167.73 105.79 168.981 105.79ZM182.269 106.28C181.401 106.28 180.636 106.07 179.973 105.65C179.32 105.23 178.816 104.661 178.461 103.942C178.107 103.214 177.929 102.407 177.929 101.52C177.929 100.605 178.121 99.7607 178.503 98.986C178.895 98.2113 179.423 97.6 180.085 97.152C180.757 96.704 181.485 96.48 182.269 96.48C183.016 96.48 183.669 96.5873 184.229 96.802C184.799 97.0073 185.219 97.2733 185.489 97.6C185.648 97.796 185.746 98.0573 185.783 98.384C185.821 98.7013 185.839 99.14 185.839 99.7H185.559C185.382 98.7947 185.055 98.1273 184.579 97.698C184.103 97.2593 183.473 97.04 182.689 97.04C181.681 97.04 180.869 97.3947 180.253 98.104C179.637 98.8133 179.329 99.952 179.329 101.52C179.329 102.257 179.446 102.943 179.679 103.578C179.922 104.213 180.295 104.731 180.799 105.132C181.303 105.524 181.933 105.72 182.689 105.72C183.371 105.72 183.963 105.557 184.467 105.23C184.981 104.903 185.438 104.413 185.839 103.76L186.119 103.97C185.69 104.81 185.158 105.407 184.523 105.762C183.898 106.107 183.147 106.28 182.269 106.28ZM190.334 106.14C189.699 106.14 189.149 105.991 188.682 105.692C188.215 105.384 187.861 104.969 187.618 104.446C187.375 103.923 187.254 103.345 187.254 102.71C187.254 102.075 187.375 101.497 187.618 100.974C187.861 100.451 188.215 100.041 188.682 99.742C189.149 99.434 189.699 99.28 190.334 99.28C190.969 99.28 191.519 99.434 191.986 99.742C192.453 100.041 192.807 100.451 193.05 100.974C193.293 101.497 193.414 102.075 193.414 102.71C193.414 103.345 193.293 103.923 193.05 104.446C192.807 104.969 192.453 105.384 191.986 105.692C191.519 105.991 190.969 106.14 190.334 106.14ZM190.334 105.58C190.679 105.58 190.983 105.454 191.244 105.202C191.515 104.95 191.72 104.605 191.86 104.166C192.009 103.727 192.084 103.242 192.084 102.71C192.084 102.178 192.009 101.693 191.86 101.254C191.72 100.815 191.515 100.47 191.244 100.218C190.983 99.966 190.679 99.84 190.334 99.84C189.989 99.84 189.681 99.966 189.41 100.218C189.149 100.47 188.943 100.815 188.794 101.254C188.654 101.693 188.584 102.178 188.584 102.71C188.584 103.242 188.654 103.727 188.794 104.166C188.943 104.605 189.149 104.95 189.41 105.202C189.681 105.454 189.989 105.58 190.334 105.58ZM195.266 101.1C195.266 100.624 195.201 100.274 195.07 100.05C194.939 99.8167 194.678 99.7 194.286 99.7H194.006V99.42H195.266C195.611 99.42 195.873 99.4667 196.05 99.56C196.237 99.6533 196.372 99.7933 196.456 99.98H196.526C196.722 99.784 196.974 99.6207 197.282 99.49C197.599 99.35 197.954 99.28 198.346 99.28C199.046 99.28 199.615 99.4667 200.054 99.84C200.502 100.213 200.726 100.867 200.726 101.8V106H199.466V101.8C199.466 101.147 199.317 100.671 199.018 100.372C198.729 100.064 198.365 99.91 197.926 99.91C197.431 99.91 196.965 100.157 196.526 100.652V106H195.266V101.1ZM204.841 106.14C204.029 106.14 203.404 105.818 202.965 105.174C202.536 104.53 202.321 103.709 202.321 102.71C202.321 101.711 202.545 100.89 202.993 100.246C203.45 99.602 204.113 99.28 204.981 99.28C205.336 99.28 205.648 99.3173 205.919 99.392C206.19 99.4667 206.46 99.5693 206.731 99.7V98.44C206.731 97.964 206.666 97.614 206.535 97.39C206.404 97.1567 206.143 97.04 205.751 97.04H205.471V96.76H206.731C207.076 96.76 207.333 96.8067 207.501 96.9C207.678 96.984 207.804 97.1427 207.879 97.376C207.954 97.6093 207.991 97.964 207.991 98.44V106H207.291L206.801 105.37H206.731C206.526 105.603 206.283 105.79 206.003 105.93C205.732 106.07 205.345 106.14 204.841 106.14ZM205.261 105.58C205.644 105.58 205.933 105.51 206.129 105.37C206.325 105.23 206.526 105.02 206.731 104.74V100.26C206.451 100.129 206.208 100.027 206.003 99.952C205.798 99.8773 205.597 99.84 205.401 99.84C204.804 99.84 204.36 100.101 204.071 100.624C203.791 101.147 203.651 101.842 203.651 102.71C203.651 103.569 203.786 104.264 204.057 104.796C204.328 105.319 204.729 105.58 205.261 105.58ZM210.755 98.58C210.54 98.58 210.354 98.4913 210.195 98.314C210.046 98.1367 209.971 97.9267 209.971 97.684C209.971 97.488 210.027 97.334 210.139 97.222C210.26 97.11 210.419 97.054 210.615 97.054C210.83 97.054 211.012 97.1427 211.161 97.32C211.32 97.4973 211.399 97.7073 211.399 97.95C211.399 98.146 211.338 98.3 211.217 98.412C211.105 98.524 210.951 98.58 210.755 98.58ZM210.223 101.1C210.223 100.624 210.158 100.274 210.027 100.05C209.896 99.8167 209.635 99.7 209.243 99.7H208.963V99.42H210.223C210.568 99.42 210.825 99.4667 210.993 99.56C211.17 99.644 211.296 99.8027 211.371 100.036C211.446 100.269 211.483 100.624 211.483 101.1V106H210.223V101.1ZM215.404 106.14C214.882 106.14 214.471 105.991 214.172 105.692C213.874 105.393 213.724 104.936 213.724 104.32V99.98H212.744V99.42H213.724V98.16L214.424 97.32H214.984V99.42H216.664V99.98H214.984V104.32C214.984 105.16 215.311 105.58 215.964 105.58C216.188 105.58 216.375 105.557 216.524 105.51C216.683 105.463 216.846 105.393 217.014 105.3L217.154 105.58C216.94 105.739 216.702 105.874 216.44 105.986C216.179 106.089 215.834 106.14 215.404 106.14ZM218.931 98.58C218.716 98.58 218.529 98.4913 218.371 98.314C218.221 98.1367 218.147 97.9267 218.147 97.684C218.147 97.488 218.203 97.334 218.315 97.222C218.436 97.11 218.595 97.054 218.791 97.054C219.005 97.054 219.187 97.1427 219.337 97.32C219.495 97.4973 219.575 97.7073 219.575 97.95C219.575 98.146 219.514 98.3 219.393 98.412C219.281 98.524 219.127 98.58 218.931 98.58ZM218.399 101.1C218.399 100.624 218.333 100.274 218.203 100.05C218.072 99.8167 217.811 99.7 217.419 99.7H217.139V99.42H218.399C218.744 99.42 219.001 99.4667 219.169 99.56C219.346 99.644 219.472 99.8027 219.547 100.036C219.621 100.269 219.659 100.624 219.659 101.1V106H218.399V101.1ZM224.336 106.14C223.701 106.14 223.151 105.991 222.684 105.692C222.217 105.384 221.863 104.969 221.62 104.446C221.377 103.923 221.256 103.345 221.256 102.71C221.256 102.075 221.377 101.497 221.62 100.974C221.863 100.451 222.217 100.041 222.684 99.742C223.151 99.434 223.701 99.28 224.336 99.28C224.971 99.28 225.521 99.434 225.988 99.742C226.455 100.041 226.809 100.451 227.052 100.974C227.295 101.497 227.416 102.075 227.416 102.71C227.416 103.345 227.295 103.923 227.052 104.446C226.809 104.969 226.455 105.384 225.988 105.692C225.521 105.991 224.971 106.14 224.336 106.14ZM224.336 105.58C224.681 105.58 224.985 105.454 225.246 105.202C225.517 104.95 225.722 104.605 225.862 104.166C226.011 103.727 226.086 103.242 226.086 102.71C226.086 102.178 226.011 101.693 225.862 101.254C225.722 100.815 225.517 100.47 225.246 100.218C224.985 99.966 224.681 99.84 224.336 99.84C223.991 99.84 223.683 99.966 223.412 100.218C223.151 100.47 222.945 100.815 222.796 101.254C222.656 101.693 222.586 102.178 222.586 102.71C222.586 103.242 222.656 103.727 222.796 104.166C222.945 104.605 223.151 104.95 223.412 105.202C223.683 105.454 223.991 105.58 224.336 105.58ZM229.268 101.1C229.268 100.624 229.202 100.274 229.072 100.05C228.941 99.8167 228.68 99.7 228.288 99.7H228.008V99.42H229.268C229.613 99.42 229.874 99.4667 230.052 99.56C230.238 99.6533 230.374 99.7933 230.458 99.98H230.528C230.724 99.784 230.976 99.6207 231.284 99.49C231.601 99.35 231.956 99.28 232.348 99.28C233.048 99.28 233.617 99.4667 234.056 99.84C234.504 100.213 234.728 100.867 234.728 101.8V106H233.468V101.8C233.468 101.147 233.318 100.671 233.02 100.372C232.73 100.064 232.366 99.91 231.928 99.91C231.433 99.91 230.966 100.157 230.528 100.652V106H229.268V101.1ZM238.871 106.14C237.798 106.14 237.074 105.953 236.701 105.58C236.542 105.421 236.444 105.244 236.407 105.048C236.37 104.843 236.351 104.53 236.351 104.11H236.631C236.715 104.577 236.916 104.941 237.233 105.202C237.56 105.454 238.012 105.58 238.591 105.58C239.104 105.58 239.487 105.491 239.739 105.314C240 105.137 240.131 104.899 240.131 104.6C240.131 104.329 240.028 104.096 239.823 103.9C239.627 103.704 239.31 103.517 238.871 103.34L238.031 102.99C237.471 102.766 237.051 102.505 236.771 102.206C236.491 101.907 236.351 101.539 236.351 101.1C236.351 100.531 236.566 100.087 236.995 99.77C237.424 99.4433 237.98 99.28 238.661 99.28C239.688 99.28 240.388 99.4667 240.761 99.84C240.92 99.9987 241.018 100.176 241.055 100.372C241.092 100.568 241.111 100.881 241.111 101.31H240.831C240.756 100.843 240.56 100.484 240.243 100.232C239.926 99.9707 239.492 99.84 238.941 99.84C238.502 99.84 238.157 99.9333 237.905 100.12C237.662 100.297 237.541 100.531 237.541 100.82C237.541 101.305 237.914 101.702 238.661 102.01L239.501 102.36C240.136 102.621 240.598 102.901 240.887 103.2C241.176 103.489 241.321 103.863 241.321 104.32C241.321 104.889 241.092 105.337 240.635 105.664C240.178 105.981 239.59 106.14 238.871 106.14Z" fill="#2F80ED"/>
<defs>
<linearGradient id="paint0_linear_12244_167" x1="367" y1="55" x2="119.674" y2="-146.726" gradientUnits="userSpaceOnUse">
<stop stop-color="#992FED"/>
<stop offset="1" stop-color="#2F80ED"/>
</linearGradient>
<clipPath id="clip0_12244_167">
<rect width="22" height="22" fill="white" transform="translate(261 16.5)"/>
</clipPath>
</defs>
</svg>
